<?xml version="1.0" encoding="utf-8"?>
<!-- Generator: Adobe Illustrator 23.1.0, SVG Export Plug-In . SVG Version: 6.00 Build 0)  -->
<svg version="1.1" id="Layer_1" xmlns="http://www.w3.org/2000/svg" xmlns:xlink="http://www.w3.org/1999/xlink" x="0px" y="0px"
	 viewBox="0 0 10 10" style="enable-background:new 0 0 10 10;" xml:space="preserve">
<style type="text/css">
	.st0{fill:#515161;}
</style>
<g>
	<path class="st0" d="M4.7,8.6c-0.6,0-1.1,0-1.7,0c-1.4,0-2.7-1.2-3-2.7c-0.3-2,1.5-3.7,3.4-3.4c0.1,0,0.2,0,0.2-0.1
		C5.4,0.8,8.2,1.2,9.4,3c1.4,2.3,0,5.2-2.7,5.5c-0.5,0.1-1,0-1.5,0C5.1,8.6,4.9,8.6,4.7,8.6L4.7,8.6z M4.5,2.7
		C4.6,2.8,4.8,2.9,4.9,3s0.2,0.1,0.3,0C6,2.6,6.8,2.6,7.6,3.1s1.1,1.2,1,2.2C8.5,6.2,8,6.9,7.1,7.2c-0.9,0.2-1.7,0-2.4-0.6
		C4.3,6.2,3.9,5.7,3.4,5.3C3.2,5.1,3,5.1,2.9,5.3c-0.1,0.1-0.1,0.3,0,0.5c0.5,0.5,1,1,1.5,1.5C5.7,8.4,8,8,8.9,6.5
		c0.6-1,0.6-2-0.1-3.1S7.2,2,6,2C5.4,2.1,4.9,2.3,4.5,2.7z M4.2,7.9C4.1,7.7,3.9,7.6,3.8,7.5C3.6,7.3,3.4,7.2,3.2,7.2
		c-0.7,0-1.3-0.4-1.6-1C1.3,5.5,1.5,4.6,2.2,4.1s1.6-0.4,2.2,0.2c0.3,0.3,0.6,0.6,1,1c0.2,0.2,0.4,0.2,0.5,0C6,5.2,6,5,5.9,4.8
		c-0.3-0.3-0.6-0.6-1-1C4.4,3.3,3.8,3.1,3,3.1c-1.2,0.1-2.1,1-2.2,2.2C0.7,6.5,1.5,7.5,2.6,7.8C3,7.9,3.4,7.9,3.8,7.9
		C3.9,7.9,4.1,7.9,4.2,7.9z"/>
</g>
</svg>
