<?xml version="1.0" encoding="utf-8"?>
<!-- Generator: Adobe Illustrator 23.1.0, SVG Export Plug-In . SVG Version: 6.00 Build 0)  -->
<svg version="1.1" id="Layer_1" xmlns="http://www.w3.org/2000/svg" xmlns:xlink="http://www.w3.org/1999/xlink" x="0px" y="0px"
	 viewBox="0 0 10 10" style="enable-background:new 0 0 10 10;" xml:space="preserve">
<style type="text/css">
	.st0{fill:none;}
	.st1{fill:#515161;}
</style>
<g>
	<path class="st0" d="M7.7,6.4C6.8,4.9,6,3.5,5.1,2C4.2,3.5,3.3,4.9,2.4,6.4C4.2,6.4,5.9,6.4,7.7,6.4z M2.7,6.3
		C3.5,5,4.2,3.7,5.1,2.4c0.8,1.3,1.5,2.5,2.4,3.9C5.8,6.3,4.3,6.3,2.7,6.3z"/>
	<path class="st1" d="M0.1,5.2C0.2,8,2.5,10,5,10c2.8,0,4.9-2.3,5-4.9C10,2.2,7.6-0.1,5,0C2.7-0.1-0.1,1.9,0.1,5.2z M7.7,6.4
		c-1.8,0-3.5,0-5.4,0c1-1.5,1.9-2.9,2.8-4.4C6,3.5,6.8,4.9,7.7,6.4z"/>
</g>
</svg>
