<?xml version="1.0" encoding="utf-8"?>
<!-- Generator: Adobe Illustrator 23.1.0, SVG Export Plug-In . SVG Version: 6.00 Build 0)  -->
<svg version="1.1" id="Layer_1" xmlns="http://www.w3.org/2000/svg" xmlns:xlink="http://www.w3.org/1999/xlink" x="0px" y="0px"
	 viewBox="0 0 1024 500" style="enable-background:new 0 0 1024 500;" xml:space="preserve">
<style type="text/css">
	.st0{clip-path:url(#SVGID_2_);}
	.st1{opacity:0.75;}
	.st2{fill:none;}
	.st3{fill:none;stroke:#FFFFFF;stroke-width:1.107837e-02;stroke-miterlimit:10;stroke-opacity:0.9938;}
	.st4{fill:none;stroke:#FFFFFF;stroke-width:2.215674e-02;stroke-miterlimit:10;stroke-opacity:0.9875;}
	.st5{fill:none;stroke:#FFFFFF;stroke-width:3.323511e-02;stroke-miterlimit:10;stroke-opacity:0.9813;}
	.st6{fill:none;stroke:#FFFFFF;stroke-width:4.431349e-02;stroke-miterlimit:10;stroke-opacity:0.975;}
	.st7{fill:none;stroke:#FFFFFF;stroke-width:5.539186e-02;stroke-miterlimit:10;stroke-opacity:0.9688;}
	.st8{fill:none;stroke:#FFFFFF;stroke-width:6.647023e-02;stroke-miterlimit:10;stroke-opacity:0.9626;}
	.st9{fill:none;stroke:#FFFFFF;stroke-width:7.754860e-02;stroke-miterlimit:10;stroke-opacity:0.9563;}
	.st10{fill:none;stroke:#FFFFFF;stroke-width:8.862697e-02;stroke-miterlimit:10;stroke-opacity:0.9501;}
	.st11{fill:none;stroke:#FFFFFF;stroke-width:9.970535e-02;stroke-miterlimit:10;stroke-opacity:0.9439;}
	.st12{fill:none;stroke:#FFFFFF;stroke-width:0.1108;stroke-miterlimit:10;stroke-opacity:0.9376;}
	.st13{fill:none;stroke:#FFFFFF;stroke-width:0.1219;stroke-miterlimit:10;stroke-opacity:0.9314;}
	.st14{fill:none;stroke:#FFFFFF;stroke-width:0.1329;stroke-miterlimit:10;stroke-opacity:0.9251;}
	.st15{fill:none;stroke:#FFFFFF;stroke-width:0.144;stroke-miterlimit:10;stroke-opacity:0.9189;}
	.st16{fill:none;stroke:#FFFFFF;stroke-width:0.1551;stroke-miterlimit:10;stroke-opacity:0.9127;}
	.st17{fill:none;stroke:#FFFFFF;stroke-width:0.1662;stroke-miterlimit:10;stroke-opacity:0.9064;}
	.st18{fill:none;stroke:#FFFFFF;stroke-width:0.1773;stroke-miterlimit:10;stroke-opacity:0.9002;}
	.st19{fill:none;stroke:#FFFFFF;stroke-width:0.1883;stroke-miterlimit:10;stroke-opacity:0.894;}
	.st20{fill:none;stroke:#FFFFFF;stroke-width:0.1994;stroke-miterlimit:10;stroke-opacity:0.8877;}
	.st21{fill:none;stroke:#FFFFFF;stroke-width:0.2105;stroke-miterlimit:10;stroke-opacity:0.8815;}
	.st22{fill:none;stroke:#FFFFFF;stroke-width:0.2216;stroke-miterlimit:10;stroke-opacity:0.8752;}
	.st23{fill:none;stroke:#FFFFFF;stroke-width:0.2326;stroke-miterlimit:10;stroke-opacity:0.869;}
	.st24{fill:none;stroke:#FFFFFF;stroke-width:0.2437;stroke-miterlimit:10;stroke-opacity:0.8628;}
	.st25{fill:none;stroke:#FFFFFF;stroke-width:0.2548;stroke-miterlimit:10;stroke-opacity:0.8565;}
	.st26{fill:none;stroke:#FFFFFF;stroke-width:0.2659;stroke-miterlimit:10;stroke-opacity:0.8503;}
	.st27{fill:none;stroke:#FFFFFF;stroke-width:0.277;stroke-miterlimit:10;stroke-opacity:0.8441;}
	.st28{fill:none;stroke:#FFFFFF;stroke-width:0.288;stroke-miterlimit:10;stroke-opacity:0.8378;}
	.st29{fill:none;stroke:#FFFFFF;stroke-width:0.2991;stroke-miterlimit:10;stroke-opacity:0.8316;}
	.st30{fill:none;stroke:#FFFFFF;stroke-width:0.3102;stroke-miterlimit:10;stroke-opacity:0.8253;}
	.st31{fill:none;stroke:#FFFFFF;stroke-width:0.3213;stroke-miterlimit:10;stroke-opacity:0.8191;}
	.st32{fill:none;stroke:#FFFFFF;stroke-width:0.3324;stroke-miterlimit:10;stroke-opacity:0.8129;}
	.st33{fill:none;stroke:#FFFFFF;stroke-width:0.3434;stroke-miterlimit:10;stroke-opacity:0.8066;}
	.st34{fill:none;stroke:#FFFFFF;stroke-width:0.3545;stroke-miterlimit:10;stroke-opacity:0.8004;}
	.st35{fill:none;stroke:#FFFFFF;stroke-width:0.3656;stroke-miterlimit:10;stroke-opacity:0.7942;}
	.st36{fill:none;stroke:#FFFFFF;stroke-width:0.3767;stroke-miterlimit:10;stroke-opacity:0.7879;}
	.st37{fill:none;stroke:#FFFFFF;stroke-width:0.3877;stroke-miterlimit:10;stroke-opacity:0.7817;}
	.st38{fill:none;stroke:#FFFFFF;stroke-width:0.3988;stroke-miterlimit:10;stroke-opacity:0.7754;}
	.st39{fill:none;stroke:#FFFFFF;stroke-width:0.4099;stroke-miterlimit:10;stroke-opacity:0.7692;}
	.st40{fill:none;stroke:#FFFFFF;stroke-width:0.421;stroke-miterlimit:10;stroke-opacity:0.763;}
	.st41{fill:none;stroke:#FFFFFF;stroke-width:0.4321;stroke-miterlimit:10;stroke-opacity:0.7567;}
	.st42{fill:none;stroke:#FFFFFF;stroke-width:0.4431;stroke-miterlimit:10;stroke-opacity:0.7505;}
	.st43{fill:none;stroke:#FFFFFF;stroke-width:0.4542;stroke-miterlimit:10;stroke-opacity:0.7443;}
	.st44{fill:none;stroke:#FFFFFF;stroke-width:0.4653;stroke-miterlimit:10;stroke-opacity:0.738;}
	.st45{fill:none;stroke:#FFFFFF;stroke-width:0.4764;stroke-miterlimit:10;stroke-opacity:0.7318;}
	.st46{fill:none;stroke:#FFFFFF;stroke-width:0.4874;stroke-miterlimit:10;stroke-opacity:0.7255;}
	.st47{fill:none;stroke:#FFFFFF;stroke-width:0.4985;stroke-miterlimit:10;stroke-opacity:0.7193;}
	.st48{fill:none;stroke:#FFFFFF;stroke-width:0.5096;stroke-miterlimit:10;stroke-opacity:0.7131;}
	.st49{fill:none;stroke:#FFFFFF;stroke-width:0.5207;stroke-miterlimit:10;stroke-opacity:0.7068;}
	.st50{fill:none;stroke:#FFFFFF;stroke-width:0.5318;stroke-miterlimit:10;stroke-opacity:0.7006;}
	.st51{fill:none;stroke:#FFFFFF;stroke-width:0.5428;stroke-miterlimit:10;stroke-opacity:0.6944;}
	.st52{fill:none;stroke:#FFFFFF;stroke-width:0.5539;stroke-miterlimit:10;stroke-opacity:0.6881;}
	.st53{fill:none;stroke:#FFFFFF;stroke-width:0.565;stroke-miterlimit:10;stroke-opacity:0.6819;}
	.st54{fill:none;stroke:#FFFFFF;stroke-width:0.5761;stroke-miterlimit:10;stroke-opacity:0.6756;}
	.st55{fill:none;stroke:#FFFFFF;stroke-width:0.5872;stroke-miterlimit:10;stroke-opacity:0.6694;}
	.st56{fill:none;stroke:#FFFFFF;stroke-width:0.5982;stroke-miterlimit:10;stroke-opacity:0.6632;}
	.st57{fill:none;stroke:#FFFFFF;stroke-width:0.6093;stroke-miterlimit:10;stroke-opacity:0.6569;}
	.st58{fill:none;stroke:#FFFFFF;stroke-width:0.6204;stroke-miterlimit:10;stroke-opacity:0.6507;}
	.st59{fill:none;stroke:#FFFFFF;stroke-width:0.6315;stroke-miterlimit:10;stroke-opacity:0.6445;}
	.st60{fill:none;stroke:#FFFFFF;stroke-width:0.6425;stroke-miterlimit:10;stroke-opacity:0.6382;}
	.st61{fill:none;stroke:#FFFFFF;stroke-width:0.6536;stroke-miterlimit:10;stroke-opacity:0.632;}
	.st62{fill:none;stroke:#FFFFFF;stroke-width:0.6647;stroke-miterlimit:10;stroke-opacity:0.6257;}
	.st63{fill:none;stroke:#FFFFFF;stroke-width:0.6758;stroke-miterlimit:10;stroke-opacity:0.6195;}
	.st64{fill:none;stroke:#FFFFFF;stroke-width:0.6869;stroke-miterlimit:10;stroke-opacity:0.6133;}
	.st65{fill:none;stroke:#FFFFFF;stroke-width:0.6979;stroke-miterlimit:10;stroke-opacity:0.607;}
	.st66{fill:none;stroke:#FFFFFF;stroke-width:0.709;stroke-miterlimit:10;stroke-opacity:0.6008;}
	.st67{fill:none;stroke:#FFFFFF;stroke-width:0.7201;stroke-miterlimit:10;stroke-opacity:0.5946;}
	.st68{fill:none;stroke:#FFFFFF;stroke-width:0.7312;stroke-miterlimit:10;stroke-opacity:0.5883;}
	.st69{fill:none;stroke:#FFFFFF;stroke-width:0.7423;stroke-miterlimit:10;stroke-opacity:0.5821;}
	.st70{fill:none;stroke:#FFFFFF;stroke-width:0.7533;stroke-miterlimit:10;stroke-opacity:0.5758;}
	.st71{fill:none;stroke:#FFFFFF;stroke-width:0.7644;stroke-miterlimit:10;stroke-opacity:0.5696;}
	.st72{fill:none;stroke:#FFFFFF;stroke-width:0.7755;stroke-miterlimit:10;stroke-opacity:0.5634;}
	.st73{fill:none;stroke:#FFFFFF;stroke-width:0.7866;stroke-miterlimit:10;stroke-opacity:0.5571;}
	.st74{fill:none;stroke:#FFFFFF;stroke-width:0.7976;stroke-miterlimit:10;stroke-opacity:0.5509;}
	.st75{fill:none;stroke:#FFFFFF;stroke-width:0.8087;stroke-miterlimit:10;stroke-opacity:0.5447;}
	.st76{fill:none;stroke:#FFFFFF;stroke-width:0.8198;stroke-miterlimit:10;stroke-opacity:0.5384;}
	.st77{fill:none;stroke:#FFFFFF;stroke-width:0.8309;stroke-miterlimit:10;stroke-opacity:0.5322;}
	.st78{fill:none;stroke:#FFFFFF;stroke-width:0.842;stroke-miterlimit:10;stroke-opacity:0.5259;}
	.st79{fill:none;stroke:#FFFFFF;stroke-width:0.853;stroke-miterlimit:10;stroke-opacity:0.5197;}
	.st80{fill:none;stroke:#FFFFFF;stroke-width:0.8641;stroke-miterlimit:10;stroke-opacity:0.5135;}
	.st81{fill:none;stroke:#FFFFFF;stroke-width:0.8752;stroke-miterlimit:10;stroke-opacity:0.5072;}
	.st82{fill:none;stroke:#FFFFFF;stroke-width:0.8863;stroke-miterlimit:10;stroke-opacity:0.501;}
	.st83{fill:none;stroke:#FFFFFF;stroke-width:0.8973;stroke-miterlimit:10;stroke-opacity:0.4948;}
	.st84{fill:none;stroke:#FFFFFF;stroke-width:0.9084;stroke-miterlimit:10;stroke-opacity:0.4885;}
	.st85{fill:none;stroke:#FFFFFF;stroke-width:0.9195;stroke-miterlimit:10;stroke-opacity:0.4823;}
	.st86{fill:none;stroke:#FFFFFF;stroke-width:0.9306;stroke-miterlimit:10;stroke-opacity:0.476;}
	.st87{fill:none;stroke:#FFFFFF;stroke-width:0.9417;stroke-miterlimit:10;stroke-opacity:0.4698;}
	.st88{fill:none;stroke:#FFFFFF;stroke-width:0.9527;stroke-miterlimit:10;stroke-opacity:0.4636;}
	.st89{fill:none;stroke:#FFFFFF;stroke-width:0.9638;stroke-miterlimit:10;stroke-opacity:0.4573;}
	.st90{fill:none;stroke:#FFFFFF;stroke-width:0.9749;stroke-miterlimit:10;stroke-opacity:0.4511;}
	.st91{fill:none;stroke:#FFFFFF;stroke-width:0.986;stroke-miterlimit:10;stroke-opacity:0.4449;}
	.st92{fill:none;stroke:#FFFFFF;stroke-width:0.9971;stroke-miterlimit:10;stroke-opacity:0.4386;}
	.st93{fill:none;stroke:#FFFFFF;stroke-width:1.0081;stroke-miterlimit:10;stroke-opacity:0.4324;}
	.st94{fill:none;stroke:#FFFFFF;stroke-width:1.0192;stroke-miterlimit:10;stroke-opacity:0.4261;}
	.st95{fill:none;stroke:#FFFFFF;stroke-width:1.0303;stroke-miterlimit:10;stroke-opacity:0.4199;}
	.st96{fill:none;stroke:#FFFFFF;stroke-width:1.0414;stroke-miterlimit:10;stroke-opacity:0.4137;}
	.st97{fill:none;stroke:#FFFFFF;stroke-width:1.0524;stroke-miterlimit:10;stroke-opacity:0.4074;}
	.st98{fill:none;stroke:#FFFFFF;stroke-width:1.0635;stroke-miterlimit:10;stroke-opacity:0.4012;}
	.st99{fill:none;stroke:#FFFFFF;stroke-width:1.0746;stroke-miterlimit:10;stroke-opacity:0.395;}
	.st100{fill:none;stroke:#FFFFFF;stroke-width:1.0857;stroke-miterlimit:10;stroke-opacity:0.3887;}
	.st101{fill:none;stroke:#FFFFFF;stroke-width:1.0968;stroke-miterlimit:10;stroke-opacity:0.3825;}
	.st102{fill:none;stroke:#FFFFFF;stroke-width:1.1078;stroke-miterlimit:10;stroke-opacity:0.3762;}
	.st103{fill:none;stroke:#FFFFFF;stroke-width:1.1189;stroke-miterlimit:10;stroke-opacity:0.37;}
	.st104{opacity:0.42;}
	.st105{fill:none;stroke:#FFFFFF;stroke-width:1.194727e-02;stroke-miterlimit:10;}
	.st106{fill:none;stroke:#FFFFFF;stroke-width:2.389455e-02;stroke-miterlimit:10;}
	.st107{fill:none;stroke:#FFFFFF;stroke-width:3.584182e-02;stroke-miterlimit:10;}
	.st108{fill:none;stroke:#FFFFFF;stroke-width:4.778909e-02;stroke-miterlimit:10;}
	.st109{fill:none;stroke:#FFFFFF;stroke-width:5.973637e-02;stroke-miterlimit:10;}
	.st110{fill:none;stroke:#FFFFFF;stroke-width:7.168364e-02;stroke-miterlimit:10;}
	.st111{fill:none;stroke:#FFFFFF;stroke-width:8.363091e-02;stroke-miterlimit:10;}
	.st112{fill:none;stroke:#FFFFFF;stroke-width:9.557819e-02;stroke-miterlimit:10;}
	.st113{fill:none;stroke:#FFFFFF;stroke-width:0.1075;stroke-miterlimit:10;}
	.st114{fill:none;stroke:#FFFFFF;stroke-width:0.1195;stroke-miterlimit:10;}
	.st115{fill:none;stroke:#FFFFFF;stroke-width:0.1314;stroke-miterlimit:10;}
	.st116{fill:none;stroke:#FFFFFF;stroke-width:0.1434;stroke-miterlimit:10;}
	.st117{fill:none;stroke:#FFFFFF;stroke-width:0.1553;stroke-miterlimit:10;}
	.st118{fill:none;stroke:#FFFFFF;stroke-width:0.1673;stroke-miterlimit:10;}
	.st119{fill:none;stroke:#FFFFFF;stroke-width:0.1792;stroke-miterlimit:10;}
	.st120{fill:none;stroke:#FFFFFF;stroke-width:0.1912;stroke-miterlimit:10;}
	.st121{fill:none;stroke:#FFFFFF;stroke-width:0.2031;stroke-miterlimit:10;}
	.st122{fill:none;stroke:#FFFFFF;stroke-width:0.2151;stroke-miterlimit:10;}
	.st123{fill:none;stroke:#FFFFFF;stroke-width:0.227;stroke-miterlimit:10;}
	.st124{fill:none;stroke:#FFFFFF;stroke-width:0.2389;stroke-miterlimit:10;}
	.st125{fill:none;stroke:#FFFFFF;stroke-width:0.2509;stroke-miterlimit:10;}
	.st126{fill:none;stroke:#FFFFFF;stroke-width:0.2628;stroke-miterlimit:10;}
	.st127{fill:none;stroke:#FFFFFF;stroke-width:0.2748;stroke-miterlimit:10;}
	.st128{fill:none;stroke:#FFFFFF;stroke-width:0.2867;stroke-miterlimit:10;}
	.st129{fill:none;stroke:#FFFFFF;stroke-width:0.2987;stroke-miterlimit:10;}
	.st130{fill:none;stroke:#FFFFFF;stroke-width:0.3106;stroke-miterlimit:10;}
	.st131{fill:none;stroke:#FFFFFF;stroke-width:0.3226;stroke-miterlimit:10;}
	.st132{fill:none;stroke:#FFFFFF;stroke-width:0.3345;stroke-miterlimit:10;}
	.st133{fill:none;stroke:#FFFFFF;stroke-width:0.3465;stroke-miterlimit:10;}
	.st134{fill:none;stroke:#FFFFFF;stroke-width:0.3584;stroke-miterlimit:10;}
	.st135{fill:none;stroke:#FFFFFF;stroke-width:0.3704;stroke-miterlimit:10;}
	.st136{fill:none;stroke:#FFFFFF;stroke-width:0.3823;stroke-miterlimit:10;}
	.st137{fill:none;stroke:#FFFFFF;stroke-width:0.3943;stroke-miterlimit:10;}
	.st138{fill:none;stroke:#FFFFFF;stroke-width:0.4062;stroke-miterlimit:10;}
	.st139{fill:none;stroke:#FFFFFF;stroke-width:0.4182;stroke-miterlimit:10;}
	.st140{fill:none;stroke:#FFFFFF;stroke-width:0.4301;stroke-miterlimit:10;}
	.st141{fill:none;stroke:#FFFFFF;stroke-width:0.442;stroke-miterlimit:10;}
	.st142{fill:none;stroke:#FFFFFF;stroke-width:0.454;stroke-miterlimit:10;}
	.st143{fill:none;stroke:#FFFFFF;stroke-width:0.4659;stroke-miterlimit:10;}
	.st144{fill:none;stroke:#FFFFFF;stroke-width:0.4779;stroke-miterlimit:10;}
	.st145{fill:none;stroke:#FFFFFF;stroke-width:0.4898;stroke-miterlimit:10;}
	.st146{fill:none;stroke:#FFFFFF;stroke-width:0.5018;stroke-miterlimit:10;}
	.st147{fill:none;stroke:#FFFFFF;stroke-width:0.5137;stroke-miterlimit:10;}
	.st148{fill:none;stroke:#FFFFFF;stroke-width:0.5257;stroke-miterlimit:10;}
	.st149{fill:none;stroke:#FFFFFF;stroke-width:0.5376;stroke-miterlimit:10;}
	.st150{fill:none;stroke:#FFFFFF;stroke-width:0.5496;stroke-miterlimit:10;}
	.st151{fill:none;stroke:#FFFFFF;stroke-width:0.5615;stroke-miterlimit:10;}
	.st152{fill:none;stroke:#FFFFFF;stroke-width:0.5735;stroke-miterlimit:10;}
	.st153{fill:none;stroke:#FFFFFF;stroke-width:0.5854;stroke-miterlimit:10;}
	.st154{fill:none;stroke:#FFFFFF;stroke-width:0.5974;stroke-miterlimit:10;}
	.st155{fill:none;stroke:#FFFFFF;stroke-width:0.6093;stroke-miterlimit:10;}
	.st156{fill:none;stroke:#FFFFFF;stroke-width:0.6213;stroke-miterlimit:10;}
	.st157{fill:none;stroke:#FFFFFF;stroke-width:0.6332;stroke-miterlimit:10;}
	.st158{fill:none;stroke:#FFFFFF;stroke-width:0.6452;stroke-miterlimit:10;}
	.st159{fill:none;stroke:#FFFFFF;stroke-width:0.6571;stroke-miterlimit:10;}
	.st160{fill:none;stroke:#FFFFFF;stroke-width:0.669;stroke-miterlimit:10;}
	.st161{fill:none;stroke:#FFFFFF;stroke-width:0.681;stroke-miterlimit:10;}
	.st162{fill:none;stroke:#FFFFFF;stroke-width:0.6929;stroke-miterlimit:10;}
	.st163{fill:none;stroke:#FFFFFF;stroke-width:0.7049;stroke-miterlimit:10;}
	.st164{fill:none;stroke:#FFFFFF;stroke-width:0.7168;stroke-miterlimit:10;}
	.st165{fill:none;stroke:#FFFFFF;stroke-width:0.7288;stroke-miterlimit:10;}
	.st166{fill:none;stroke:#FFFFFF;stroke-width:0.7407;stroke-miterlimit:10;}
	.st167{fill:none;stroke:#FFFFFF;stroke-width:0.7527;stroke-miterlimit:10;}
	.st168{fill:none;stroke:#FFFFFF;stroke-width:0.7646;stroke-miterlimit:10;}
	.st169{fill:none;stroke:#FFFFFF;stroke-width:0.7766;stroke-miterlimit:10;}
	.st170{fill:none;stroke:#FFFFFF;stroke-width:0.7885;stroke-miterlimit:10;}
	.st171{fill:none;stroke:#FFFFFF;stroke-width:0.8005;stroke-miterlimit:10;}
	.st172{fill:none;stroke:#FFFFFF;stroke-width:0.8124;stroke-miterlimit:10;}
	.st173{fill:none;stroke:#FFFFFF;stroke-width:0.8244;stroke-miterlimit:10;}
	.st174{fill:none;stroke:#FFFFFF;stroke-width:0.8363;stroke-miterlimit:10;}
	.st175{fill:none;stroke:#FFFFFF;stroke-width:0.8483;stroke-miterlimit:10;}
	.st176{fill:none;stroke:#FFFFFF;stroke-width:0.8602;stroke-miterlimit:10;}
	.st177{fill:none;stroke:#FFFFFF;stroke-width:0.8722;stroke-miterlimit:10;}
	.st178{fill:none;stroke:#FFFFFF;stroke-width:0.8841;stroke-miterlimit:10;}
	.st179{fill:none;stroke:#FFFFFF;stroke-width:0.896;stroke-miterlimit:10;}
	.st180{fill:none;stroke:#FFFFFF;stroke-width:0.908;stroke-miterlimit:10;}
	.st181{fill:none;stroke:#FFFFFF;stroke-width:0.9199;stroke-miterlimit:10;}
	.st182{fill:none;stroke:#FFFFFF;stroke-width:0.9319;stroke-miterlimit:10;}
	.st183{fill:none;stroke:#FFFFFF;stroke-width:0.9438;stroke-miterlimit:10;}
	.st184{fill:none;stroke:#FFFFFF;stroke-width:0.9558;stroke-miterlimit:10;}
	.st185{fill:none;stroke:#FFFFFF;stroke-width:0.9677;stroke-miterlimit:10;}
	.st186{fill:none;stroke:#FFFFFF;stroke-width:0.9797;stroke-miterlimit:10;}
	.st187{fill:none;stroke:#FFFFFF;stroke-width:0.9916;stroke-miterlimit:10;}
	.st188{fill:none;stroke:#FFFFFF;stroke-width:1.0036;stroke-miterlimit:10;}
	.st189{fill:none;stroke:#FFFFFF;stroke-width:1.0155;stroke-miterlimit:10;}
	.st190{fill:none;stroke:#FFFFFF;stroke-width:1.0275;stroke-miterlimit:10;}
	.st191{fill:none;stroke:#FFFFFF;stroke-width:1.0394;stroke-miterlimit:10;}
	.st192{fill:none;stroke:#FFFFFF;stroke-width:1.0514;stroke-miterlimit:10;}
	.st193{fill:none;stroke:#FFFFFF;stroke-width:1.0633;stroke-miterlimit:10;}
	.st194{fill:none;stroke:#FFFFFF;stroke-width:1.0753;stroke-miterlimit:10;}
	.st195{fill:none;stroke:#FFFFFF;stroke-width:1.0872;stroke-miterlimit:10;}
	.st196{fill:none;stroke:#FFFFFF;stroke-width:1.0991;stroke-miterlimit:10;}
	.st197{fill:none;stroke:#FFFFFF;stroke-width:1.1111;stroke-miterlimit:10;}
	.st198{fill:none;stroke:#FFFFFF;stroke-width:1.123;stroke-miterlimit:10;}
	.st199{fill:none;stroke:#FFFFFF;stroke-width:1.135;stroke-miterlimit:10;}
	.st200{fill:none;stroke:#FFFFFF;stroke-width:1.1469;stroke-miterlimit:10;}
	.st201{fill:none;stroke:#FFFFFF;stroke-width:1.1589;stroke-miterlimit:10;}
	.st202{fill:none;stroke:#FFFFFF;stroke-width:1.1708;stroke-miterlimit:10;}
	.st203{fill:none;stroke:#FFFFFF;stroke-width:1.1828;stroke-miterlimit:10;}
	.st204{fill:none;stroke:#FFFFFF;stroke-width:1.1947;stroke-miterlimit:10;}
	.st205{fill:none;stroke:#FFFFFF;stroke-width:1.2067;stroke-miterlimit:10;}
	.st206{fill:#FFFFFF;}
	.st207{fill:none;stroke:#FFFFFF;stroke-width:8;stroke-miterlimit:10;}
</style>
<g>
	<g>
		<defs>
			<rect id="SVGID_1_" x="-2" width="1029" height="500"/>
		</defs>
		<clipPath id="SVGID_2_">
			<use xlink:href="#SVGID_1_"  style="overflow:visible;"/>
		</clipPath>
		<g class="st0">
		</g>
	</g>
</g>
<g class="st1">
	<path class="st2" d="M-169.2-356c0,0,156,206,54,631.9c-60.7,253.5-147.5,420.7,6.1,664.1"/>
	<path class="st3" d="M-154.8-355.8c0,0,152.8,206.6,53.5,632c-59.2,253-144.7,422.1,5.6,664.1"/>
	<path class="st4" d="M-140.3-355.7c0,0,149.6,207.2,53,632c-57.7,252.4-142,423.4,5,664"/>
	<path class="st5" d="M-125.8-355.5c0,0,146.4,207.8,52.5,632.1c-56.2,251.9-139.2,424.8,4.5,664"/>
	<path class="st6" d="M-111.4-355.3c0,0,143.2,208.4,51.9,632.2c-54.7,251.4-136.5,426.1,3.9,664"/>
	<path class="st7" d="M-96.9-355.2c0,0,140,209,51.4,632.2C-98.7,527.9-179.2,704.5-42.1,941"/>
	<path class="st8" d="M-82.4-355c0,0,136.8,209.6,50.9,632.3C-83.3,527.5-162.5,706-28.7,941.1"/>
	<path class="st9" d="M-68-354.8c0,0,133.6,210.2,50.4,632.3c-50.3,249.7-128.2,430.1,2.3,663.8"/>
	<path class="st10" d="M-53.5-354.7c0,0,131.4,210.9,49.8,632.4C-51.9,527-129.1,709.2-1.9,941.5"/>
	<path class="st11" d="M-39-354.5c0,0,128.3,211.5,49.3,632.4c-46.7,248.8-122.7,432.8,1.2,663.7"/>
	<path class="st12" d="M-24.5-354.3c0,0,125.2,212.2,48.8,632.5c-45.1,248.2-119.9,434.1,0.6,663.7"/>
	<path class="st13" d="M-10.1-354.2c0,0,122.1,212.8,48.3,632.5C-5.4,526.1-78.9,713.8,38.3,942"/>
	<path class="st14" d="M4.4-354c0,0,119,213.4,47.7,632.6c-42,247.2-114.4,436.8-0.5,663.6"/>
	<path class="st15" d="M18.9-353.8c0,0,115.9,214,47.2,632.7C25.6,525.5-45.5,717,65.1,942.4"/>
	<path class="st16" d="M33.3-353.7c0,0,112.8,214.6,46.7,632.7C41.1,525.1-28.8,718.5,78.5,942.5"/>
	<path class="st17" d="M47.8-353.5c0,0,109.7,215.2,46.2,632.8C56.6,524.8-12.1,720.1,91.9,942.7"/>
	<path class="st18" d="M62.3-353.3c0,0,106.6,215.8,45.6,632.8c-35.8,245-103.3,442.2-2.7,663.4"/>
	<path class="st19" d="M76.8-353.2c0,0,103.5,216.3,45.1,632.9c-34.3,244.5-100.6,443.5-3.2,663.4"/>
	<path class="st20" d="M91.2-353c0,0,100.4,216.9,44.6,632.9c-32.7,244-97.8,444.9-3.8,663.3"/>
	<path class="st21" d="M105.7-352.9c0,0,97.2,217.5,44.1,633c-31.2,243.4-95,446.2-4.3,663.3"/>
	<path class="st22" d="M120.2-352.7c0,0,94.1,218.1,43.5,633c-29.6,242.9-92.3,447.5-4.9,663.3"/>
	<path class="st23" d="M134.6-352.5c0,0,91,218.7,43,633.1c-28.1,242.3-89.5,448.9-5.4,663.2"/>
	<path class="st24" d="M149.1-352.4c0,0,87.9,219.3,42.5,633.1C165.1,522.6,104.8,731,185.6,944"/>
	<path class="st25" d="M163.6-352.2c0,0,84.8,219.9,42,633.2c-25,241.3-84,451.6-6.5,663.1"/>
	<path class="st26" d="M178-352c0,0,81.7,220.5,41.4,633.3c-23.5,240.7-81.2,452.9-7,663.1"/>
	<path class="st27" d="M192.5-351.9c0,0,78.5,221.1,40.9,633.3c-21.9,240.2-78.5,454.2-7.6,663"/>
	<path class="st28" d="M207-351.7c0,0,75.4,221.6,40.4,633.4c-20.4,239.6-75.7,455.6-8.1,663"/>
	<path class="st29" d="M221.5-351.5c0,0,72.3,222.2,39.9,633.4c-18.9,239.1-73,456.9-8.7,663"/>
	<path class="st30" d="M235.9-351.4c0,0,69.1,222.8,39.3,633.5C257.9,520.7,205.1,740.4,266,945"/>
	<path class="st31" d="M250.4-351.2c0,0,66,223.4,38.8,633.5c-15.8,238-67.4,459.6-9.8,662.9"/>
	<path class="st32" d="M264.9-351c0,0,62.9,224,38.3,633.6c-14.3,237.5-64.7,460.9-10.3,662.8"/>
	<path class="st33" d="M279.3-350.9c0,0,59.7,224.5,37.8,633.6c-12.7,236.9-61.9,462.3-10.9,662.8"/>
	<path class="st34" d="M293.8-350.7c0,0,56.6,225.1,37.2,633.7c-11.2,236.4-59.2,463.6-11.4,662.7"/>
	<path class="st35" d="M308.3-350.5c0,0,53.5,225.7,36.7,633.8c-9.7,235.8-56.4,465-12,662.7"/>
	<path class="st36" d="M322.8-350.4c0,0,50.3,226.3,36.2,633.8c-8.2,235.3-53.6,466.3-12.5,662.7"/>
	<path class="st37" d="M337.2-350.2c0,0,47.2,226.8,35.7,633.9c-6.6,234.7-50.9,467.6-13.1,662.6"/>
	<path class="st38" d="M351.7-350c0,0,44,227.4,35.1,633.9c-5.1,234.2-48.1,469-13.6,662.6"/>
	<path class="st39" d="M366.2-349.9c0,0,40.9,228,34.6,634c-3.6,233.6-45.3,470.3-14.2,662.5"/>
	<path class="st40" d="M380.6-349.7c0,0,37.7,228.5,34.1,634C412.6,517.4,372.1,756,400,946.8"/>
	<path class="st41" d="M395.1-349.5c0,0,34.5,229.1,33.6,634.1c-0.6,232.5-39.8,473-15.3,662.4"/>
	<path class="st42" d="M409.6-349.4c0,0,31.4,229.7,33,634.1c0.9,232-37.1,474.3-15.8,662.4"/>
	<path class="st43" d="M424-349.2c0,0,28.2,230.3,32.5,634.2c2.5,231.4-34.3,475.7-16.4,662.4"/>
	<path class="st44" d="M438.5-349c0,0,25,230.8,32,634.3c4,230.9-31.5,477-16.9,662.3"/>
	<path class="st45" d="M453-348.9c0,0,21.9,231.4,31.5,634.3c5.5,230.3-28.8,478.4-17.5,662.3"/>
	<path class="st46" d="M467.5-348.7c0,0,18.7,232,30.9,634.4c7,229.8-26,479.7-18,662.2"/>
	<path class="st47" d="M481.9-348.5c0,0,15.5,232.5,30.4,634.4c8.5,229.2-23.3,481.1-18.5,662.2"/>
	<path class="st48" d="M496.4-348.4c0,0,12.3,233.1,29.9,634.5c10,228.7-20.5,482.4-19.1,662.1"/>
	<path class="st49" d="M510.9-348.2c0,0,9.2,233.7,29.3,634.5c11.5,228.1-17.7,483.7-19.6,662.1"/>
	<path class="st50" d="M525.3-348c0,0,6,234.2,28.8,634.6c13,227.5-15,485.1-20.2,662.1"/>
	<path class="st51" d="M539.8-347.9c0,0,2.8,234.8,28.3,634.6c14.5,227-12.2,486.4-20.7,662"/>
	<path class="st52" d="M554.3-347.7c0,0-0.4,235.4,27.8,634.7c16,226.4-9.5,487.8-21.3,662"/>
	<path class="st53" d="M568.8-347.6c0,0-3.6,235.9,27.2,634.7c17.5,225.9-6.7,489.1-21.8,661.9"/>
	<path class="st54" d="M583.2-347.4c0,0-6.8,236.5,26.7,634.8c19,225.3-3.9,490.4-22.4,661.9"/>
	<path class="st55" d="M597.7-347.2c0,0-10,237.1,26.2,634.9c20.5,224.8-1.2,491.8-22.9,661.8"/>
	<path class="st56" d="M612.2-347.1c0,0-13.2,237.6,25.7,634.9c22,224.2,1.6,493.1-23.5,661.8"/>
	<path class="st57" d="M626.6-346.9c0,0-16.4,238.2,25.1,635c23.4,223.7,4.4,494.5-24,661.8"/>
	<path class="st58" d="M641.1-346.7c0,0-19.6,238.8,24.6,635c24.9,223.1,7.1,495.8-24.6,661.7"/>
	<path class="st59" d="M655.6-346.6c0,0-22.9,239.3,24.1,635.1c26.4,222.6,9.9,497.1-25.1,661.7"/>
	<path class="st60" d="M670-346.4c0,0-26.1,239.9,23.6,635.1c27.9,222,12.6,498.5-25.7,661.6"/>
	<path class="st61" d="M684.5-346.2c0,0-29.3,240.5,23,635.2c29.4,221.5,15.4,499.8-26.2,661.6"/>
	<path class="st62" d="M699-346.1c0,0-32.5,241.1,22.5,635.2c30.8,220.9,18.2,501.2-26.8,661.5"/>
	<path class="st63" d="M713.5-345.9c0,0-35.7,241.6,22,635.3c32.3,220.4,20.9,502.5-27.3,661.5"/>
	<path class="st64" d="M727.9-345.7c0,0-39,242.2,21.5,635.4c33.8,219.8,23.7,503.8-27.9,661.4"/>
	<path class="st65" d="M742.4-345.6c0,0-42.2,242.8,20.9,635.4c35.3,219.3,26.4,505.2-28.4,661.4"/>
	<path class="st66" d="M756.9-345.4c0,0-45.4,243.3,20.4,635.5c36.7,218.7,29.2,506.5-29,661.4"/>
	<path class="st67" d="M771.3-345.2c0,0-48.7,243.9,19.9,635.5c38.2,218.2,32,507.9-29.5,661.3"/>
	<path class="st68" d="M785.8-345.1c0,0-51.9,244.5,19.4,635.6c39.7,217.6,34.7,509.2-30.1,661.3"/>
	<path class="st69" d="M800.3-344.9c0,0-55.2,245.1,18.8,635.6c41.1,217.1,37.5,510.5-30.6,661.2"/>
	<path class="st70" d="M814.7-344.7c0,0-58.4,245.7,18.3,635.7c42.6,216.5,40.2,511.9-31.1,661.2"/>
	<path class="st71" d="M829.2-344.6c0,0-61.7,246.2,17.8,635.7c44.1,216,43,513.2-31.7,661.1"/>
	<path class="st72" d="M843.7-344.4c0,0-64.9,246.8,17.3,635.8c45.5,215.5,45.8,514.6-32.2,661.1"/>
	<path class="st73" d="M858.2-344.2c0,0-68.2,247.4,16.7,635.8c47,214.9,48.5,515.9-32.8,661.1"/>
	<path class="st74" d="M872.6-344.1c0,0-71.5,248,16.2,635.9c48.4,214.4,51.3,517.2-33.3,661"/>
	<path class="st75" d="M887.1-343.9c0,0-74.7,248.6,15.7,636c49.9,213.8,54.1,518.6-33.9,661"/>
	<path class="st76" d="M901.6-343.7c0,0-78,249.2,15.2,636c51.4,213.3,56.8,519.9-34.4,660.9"/>
	<path class="st77" d="M916-343.6c0,0-81.3,249.7,14.6,636.1c52.8,212.7,59.6,521.3-35,660.9"/>
	<path class="st78" d="M930.5-343.4c0,0-84.5,250.3,14.1,636.1c54.3,212.2,62.3,522.6-35.5,660.8"/>
	<path class="st79" d="M945-343.2c0,0-87.8,250.9,13.6,636.2c55.7,211.7,65.1,523.9-36.1,660.8"/>
	<path class="st80" d="M959.5-343.1c0,0-91.1,251.5,13.1,636.2c57.2,211.1,67.9,525.3-36.6,660.8"/>
	<path class="st81" d="M973.9-342.9c0,0-94.4,252.1,12.5,636.3c58.6,210.6,70.6,526.6-37.2,660.7"/>
	<path class="st82" d="M988.4-342.7c0,0-97.7,252.7,12,636.3c60.1,210.1,73.4,528-37.7,660.7"/>
	<path class="st83" d="M1002.9-342.6c0,0-100.9,253.3,11.5,636.4c61.5,209.5,76.1,529.3-38.3,660.6"/>
	<path class="st84" d="M1017.3-342.4c0,0-104.2,253.9,11,636.5c62.9,209,78.9,530.6-38.8,660.6"/>
	<path class="st85" d="M1031.8-342.2c0,0-107.5,254.5,10.4,636.5c64.4,208.5,81.7,532-39.4,660.5"/>
	<path class="st86" d="M1046.3-342.1c0,0-110.8,255.1,9.9,636.6c65.8,207.9,84.4,533.3-39.9,660.5"/>
	<path class="st87" d="M1060.7-341.9c0,0-114.1,255.7,9.4,636.6c67.3,207.4,87.2,534.7-40.5,660.5"/>
	<path class="st88" d="M1075.2-341.8c0,0-117.4,256.4,8.9,636.7c68.7,206.9,89.9,536-41,660.4"/>
	<path class="st89" d="M1089.7-341.6c0,0-120.7,257,8.3,636.7c70.1,206.3,92.7,537.3-41.6,660.4"/>
	<path class="st90" d="M1104.2-341.4c0,0-124,257.6,7.8,636.8c71.6,205.8,95.5,538.7-42.1,660.3"/>
	<path class="st91" d="M1118.6-341.3c0,0-127.4,258.2,7.3,636.8c73,205.3,98.2,540-42.7,660.3"/>
	<path class="st92" d="M1133.1-341.1c0,0-130.7,258.8,6.8,636.9c74.4,204.8,101,541.4-43.2,660.2"/>
	<path class="st93" d="M1147.6-340.9c0,0-134,259.4,6.2,636.9c75.9,204.2,103.8,542.7-43.7,660.2"/>
	<path class="st94" d="M1162-340.8c0,0-137.3,260.1,5.7,637c77.3,203.7,106.5,544-44.3,660.2"/>
	<path class="st95" d="M1176.5-340.6c0,0-140.6,260.7,5.2,637.1c78.7,203.2,109.3,545.4-44.8,660.1"/>
	<path class="st96" d="M1191-340.4c0,0-143.9,261.3,4.7,637.1c80.2,202.7,112,546.7-45.4,660.1"/>
	<path class="st97" d="M1205.5-340.3c0,0-147.3,262,4.1,637.2c81.6,202.2,114.8,548.1-45.9,660"/>
	<path class="st98" d="M1219.9-340.1c0,0-151.2,262.9,3.6,637.2c82.7,201.8,117.6,549.4-46.5,660"/>
	<path class="st99" d="M1234.4-339.9c0,0-154.4,263.5,3.1,637.3c84.1,201.3,120.3,550.8-47,659.9"/>
	<path class="st100" d="M1248.9-339.8c0,0-157.6,264.1,2.6,637.3c85.6,200.7,123.1,552.1-47.6,659.9"/>
	<path class="st101" d="M1263.3-339.6c0,0-160.8,264.7,2,637.4c87.1,200.2,125.8,553.4-48.1,659.9"/>
	<path class="st102" d="M1277.8-339.4c0,0-164,265.2,1.5,637.4c88.6,199.6,128.6,554.8-48.7,659.8"/>
	<path class="st103" d="M1292.3-339.3c0,0-167.2,265.8,1,637.5c90.1,199.1,131.4,556.1-49.2,659.8"/>
</g>
<g class="st104">
	<path class="st2" d="M-234,1029.9c0,0,257.6-145.1,790.2-50.3c317,56.5,526.1,137.2,830.4-5.7"/>
	<path class="st105" d="M-233.8,1016.4c0,0,258.4-142.2,790.2-49.8c316.3,55.1,527.8,134.6,830.4-5.2"/>
	<path class="st106" d="M-233.6,1003c0,0,259.1-139.2,790.3-49.3c315.6,53.7,529.4,132.1,830.3-4.7"/>
	<path class="st107" d="M-233.4,989.5c0,0,259.8-136.2,790.4-48.8c315,52.3,531.1,129.5,830.2-4.1"/>
	<path class="st108" d="M-233.2,976c0,0,260.6-133.2,790.4-48.3c314.3,50.9,532.8,126.9,830.2-3.6"/>
	<path class="st109" d="M-233,962.6c0,0,261.3-130.3,790.5-47.8c313.6,49.5,534.5,124.4,830.1-3.1"/>
	<path class="st110" d="M-232.8,949.1c0,0,262.1-127.3,790.6-47.3c312.9,48.1,536.1,121.8,830.1-2.6"/>
	<path class="st111" d="M-232.5,935.7c0,0,262.8-124.3,790.6-46.8c312.3,46.8,537.8,119.2,830-2.1"/>
	<path class="st112" d="M-232.3,922.2c0,0,263.5-121.3,790.7-46.4c311.6,45.4,539.5,116.7,830-1.6"/>
	<path class="st113" d="M-232.1,908.7c0,0,264.3-118.3,790.8-45.9c310.9,44,541.2,114.1,829.9-1.1"/>
	<path class="st114" d="M-231.9,895.3c0,0,265.2-116.4,790.9-45.4c310.3,42,542.8,111.5,829.9-0.6"/>
	<path class="st115" d="M-231.7,881.8c0,0,265.9-113.6,790.9-44.9c309.7,40.5,544.5,109,829.8-0.1"/>
	<path class="st116" d="M-231.5,868.4c0,0,266.7-110.7,791-44.4c309,39.1,546.2,106.4,829.8,0.4"/>
	<path class="st117" d="M-231.3,854.9c0,0,267.4-107.8,791.1-43.9c308.3,37.6,547.9,103.8,829.7,0.9"/>
	<path class="st118" d="M-231.1,841.4c0,0,268.1-104.9,791.1-43.4c307.7,36.2,549.5,101.2,829.7,1.5"/>
	<path class="st119" d="M-230.9,828c0,0,268.9-102,791.2-42.9c307,34.7,551.2,98.7,829.6,2"/>
	<path class="st120" d="M-230.7,814.5c0,0,269.6-99.1,791.3-42.4c306.3,33.3,552.9,96.1,829.5,2.5"/>
	<path class="st121" d="M-230.5,801.1c0,0,270.4-96.2,791.3-42c305.6,31.9,554.6,93.5,829.5,3"/>
	<path class="st122" d="M-230.3,787.6c0,0,271.1-93.4,791.4-41.5c305,30.4,556.2,91,829.4,3.5"/>
	<path class="st123" d="M-230.1,774.1c0,0,271.9-90.5,791.5-41c304.3,29,557.9,88.4,829.4,4"/>
	<path class="st124" d="M-229.9,760.7c0,0,272.6-87.6,791.5-40.5c303.6,27.5,559.6,85.8,829.3,4.5"/>
	<path class="st125" d="M-229.6,747.2c0,0,273.3-84.7,791.6-40c302.9,26.1,561.3,83.3,829.3,5"/>
	<path class="st126" d="M-229.4,733.8c0,0,274.1-81.8,791.7-39.5c302.3,24.7,562.9,80.7,829.2,5.5"/>
	<path class="st127" d="M-229.2,720.3c0,0,274.8-78.9,791.7-39c301.6,23.2,564.6,78.1,829.2,6"/>
	<path class="st128" d="M-229,706.8c0,0,275.5-76,791.8-38.5c300.9,21.8,566.3,75.6,829.1,6.6"/>
	<path class="st129" d="M-228.8,693.4c0,0,276.3-73.1,791.9-38c300.2,20.4,568,73,829.1,7.1"/>
	<path class="st130" d="M-228.6,679.9c0,0,277-70.1,792-37.6c299.6,19,569.7,70.4,829,7.6"/>
	<path class="st131" d="M-228.4,666.5c0,0,277.7-67.2,792-37.1c298.9,17.5,571.3,67.9,829,8.1"/>
	<path class="st132" d="M-228.2,653c0,0,278.5-64.3,792.1-36.6c298.2,16.1,573,65.3,828.9,8.6"/>
	<path class="st133" d="M-228,639.5c0,0,279.2-61.4,792.2-36.1c297.5,14.7,574.7,62.7,828.8,9.1"/>
	<path class="st134" d="M-227.8,626.1c0,0,279.9-58.5,792.2-35.6c296.8,13.3,576.4,60.2,828.8,9.6"/>
	<path class="st135" d="M-227.6,612.6c0,0,280.7-55.6,792.3-35.1c296.2,11.8,578,57.6,828.7,10.1"/>
	<path class="st136" d="M-227.4,599.2c0,0,281.4-52.6,792.4-34.6c295.5,10.4,579.7,55,828.7,10.6"/>
	<path class="st137" d="M-227.2,585.7c0,0,282.1-49.7,792.4-34.1c294.8,9,581.4,52.5,828.6,11.1"/>
	<path class="st138" d="M-227,572.2c0,0,282.9-46.8,792.5-33.7c294.1,7.6,583.1,49.9,828.6,11.6"/>
	<path class="st139" d="M-226.7,558.8c0,0,283.6-43.9,792.6-33.2c293.4,6.2,584.7,47.3,828.5,12.2"/>
	<path class="st140" d="M-226.5,545.3c0,0,284.3-40.9,792.6-32.7c292.8,4.8,586.4,44.7,828.5,12.7"/>
	<path class="st141" d="M-226.3,531.9c0,0,285-38,792.7-32.2c292.1,3.3,588.1,42.2,828.4,13.2"/>
	<path class="st142" d="M-226.1,518.4c0,0,285.8-35.1,792.8-31.7c291.4,1.9,589.8,39.6,828.4,13.7"/>
	<path class="st143" d="M-225.9,505c0,0,286.5-38.3,792.8-31.2c290.7,4.1,591.4,37,828.3,14.2"/>
	<path class="st144" d="M-225.7,491.5c0,0,287.2-35.4,792.9-30.7c290,2.7,593.1,34.5,828.3,14.7"/>
	<path class="st145" d="M-225.5,478c0,0,287.9-26.2,793-30.2c289.4-2.3,594.8,31.9,828.2,15.2"/>
	<path class="st146" d="M-225.3,464.6c0,0,288.7-23.3,793.1-29.7c288.7-3.7,596.5,29.3,828.1,15.7"/>
	<path class="st147" d="M-225.1,451.1c0,0,289.4-20.3,793.1-29.3c288-5.1,598.1,26.8,828.1,16.2"/>
	<path class="st148" d="M-224.9,437.7c0,0,290.1-17.4,793.2-28.8c287.3-6.5,599.8,24.2,828,16.7"/>
	<path class="st149" d="M-224.7,424.2c0,0,290.8-14.4,793.3-28.3c286.6-7.9,601.5,21.6,828,17.3"/>
	<path class="st150" d="M-224.5,410.7c0,0,291.6-11.5,793.3-27.8c285.9-9.3,603.2,19.1,827.9,17.8"/>
	<path class="st151" d="M-224.3,397.3c0,0,292.3-8.5,793.4-27.3c285.3-10.7,604.8,16.5,827.9,18.3"/>
	<path class="st152" d="M-224.1,383.8c0,0,293-5.6,793.5-26.8c284.6-12.1,606.5,13.9,827.8,18.8"/>
	<path class="st153" d="M-223.8,370.4c0,0,293.7-2.6,793.5-26.3c283.9-13.5,608.2,11.4,827.8,19.3"/>
	<path class="st154" d="M-223.6,356.9c0,0,294.4,0.4,793.6-25.8c283.2-14.9,609.9,8.8,827.7,19.8"/>
	<path class="st155" d="M-223.4,343.4c0,0,295.2,3.4,793.7-25.3c282.5-16.3,611.6,6.2,827.7,20.3"/>
	<path class="st156" d="M-223.2,330c0,0,295.9,6.3,793.7-24.9c281.8-17.7,613.2,3.7,827.6,20.8"/>
	<path class="st157" d="M-223,316.5c0,0,296.6,9.3,793.8-24.4c281.2-19,614.9,1.1,827.5,21.3"/>
	<path class="st158" d="M-222.8,303.1c0,0,297.3,12.3,793.9-23.9c280.5-20.4,616.6-1.5,827.5,21.8"/>
	<path class="st159" d="M-222.6,289.6c0,0,298.1,15.3,793.9-23.4c279.8-21.8,618.3-4,827.4,22.3"/>
	<path class="st160" d="M-222.4,276.1c0,0,298.8,18.2,794-22.9c279.1-23.2,619.9-6.6,827.4,22.9"/>
	<path class="st161" d="M-222.2,262.7c0,0,299.5,21.2,794.1-22.4c278.4-24.6,621.6-9.2,827.3,23.4"/>
	<path class="st162" d="M-222,249.2c0,0,300.2,24.2,794.2-21.9c277.8-26,623.3-11.8,827.3,23.9"/>
	<path class="st163" d="M-221.8,235.8c0,0,301,27.2,794.2-21.4c277.1-27.3,625-14.3,827.2,24.4"/>
	<path class="st164" d="M-221.6,222.3c0,0,301.7,30.2,794.3-20.9c276.4-28.7,626.6-16.9,827.2,24.9"/>
	<path class="st165" d="M-221.4,208.8c0,0,302.4,33.2,794.4-20.5c275.7-30.1,628.3-19.5,827.1,25.4"/>
	<path class="st166" d="M-221.2,195.4c0,0,303.1,36.2,794.4-20c275-31.5,630-22,827.1,25.9"/>
	<path class="st167" d="M-220.9,181.9c0,0,303.9,39.2,794.5-19.5c274.3-32.8,631.7-24.6,827,26.4"/>
	<path class="st168" d="M-220.7,168.5c0,0,304.6,42.2,794.6-19c273.7-34.2,633.3-27.2,827,26.9"/>
	<path class="st169" d="M-220.5,155c0,0,305.3,45.2,794.6-18.5c273-35.6,635-29.7,826.9,27.4"/>
	<path class="st170" d="M-220.3,141.5c0,0,306.1,48.3,794.7-18c272.3-36.9,636.7-32.3,826.8,28"/>
	<path class="st171" d="M-220.1,128.1c0,0,306.8,51.3,794.8-17.5C846.3,72.3,1213,75.7,1401.5,139"/>
	<path class="st172" d="M-219.9,114.6c0,0,307.5,54.3,794.8-17c270.9-39.7,640-37.4,826.7,29"/>
	<path class="st173" d="M-219.7,101.2c0,0,308.2,57.3,794.9-16.6c270.3-41,641.7-40,826.7,29.5"/>
	<path class="st174" d="M-219.5,87.7c0,0,309,60.3,795-16.1c269.6-42.4,643.4-42.6,826.6,30"/>
	<path class="st175" d="M-219.3,74.3c0,0,309.7,63.4,795.1-15.6c268.9-43.7,645.1-45.1,826.6,30.5"/>
	<path class="st176" d="M-219.1,60.8c0,0,310.4,66.4,795.1-15.1c268.2-45.1,646.7-47.7,826.5,31"/>
	<path class="st177" d="M-218.9,47.3c0,0,311.2,69.4,795.2-14.6c267.6-46.5,648.4-50.3,826.5,31.5"/>
	<path class="st178" d="M-218.7,33.9c0,0,311.9,72.5,795.3-14.1c266.9-47.8,650.1-52.8,826.4,32"/>
	<path class="st179" d="M-218.5,20.4c0,0,312.7,75.5,795.3-13.6c266.2-49.2,651.8-55.4,826.4,32.5"/>
	<path class="st180" d="M-218.3,7c0,0,313.4,78.6,795.4-13.1c265.5-50.5,653.5-58,826.3,33"/>
	<path class="st181" d="M-218-6.5c0,0,314.1,81.6,795.5-12.6c264.9-51.9,655.1-60.6,826.3,33.6"/>
	<path class="st182" d="M-217.8-20c0,0,314.9,84.7,795.5-12.2c264.2-53.2,656.8-63.1,826.2,34.1"/>
	<path class="st183" d="M-217.6-33.4c0,0,315.6,87.7,795.6-11.7c263.5-54.6,658.5-65.7,826.1,34.6"/>
	<path class="st184" d="M-217.4-46.9c0,0,316.4,90.8,795.7-11.2c262.8-55.9,660.2-68.3,826.1,35.1"/>
	<path class="st185" d="M-217.2-60.3c0,0,317.1,93.8,795.7-10.7c262.2-57.2,661.8-70.8,826,35.6"/>
	<path class="st186" d="M-217-73.8c0,0,317.9,96.9,795.8-10.2c261.5-58.6,663.5-73.4,826,36.1"/>
	<path class="st187" d="M-216.8-87.3c0,0,318.6,99.9,795.9-9.7c260.8-59.9,665.2-76,825.9,36.6"/>
	<path class="st188" d="M-216.6-100.7c0,0,319.3,103,795.9-9.2c260.2-61.3,666.9-78.5,825.9,37.1"/>
	<path class="st189" d="M-216.4-114.2c0,0,320.1,106.1,796-8.7c259.5-62.6,668.5-81.1,825.8,37.6"/>
	<path class="st190" d="M-216.2-127.6c0,0,320.9,109.1,796.1-8.2c258.8-63.9,670.2-83.7,825.8,38.1"/>
	<path class="st191" d="M-216-141.1c0,0,321.6,112.2,796.2-7.8c258.2-65.3,671.9-86.2,825.7,38.7"/>
	<path class="st192" d="M-215.8-154.6c0,0,322.4,115.3,796.2-7.3c257.5-66.6,673.6-88.8,825.7,39.2"/>
	<path class="st193" d="M-215.6-168c0,0,323.1,118.4,796.3-6.8c256.8-67.9,675.2-91.4,825.6,39.7"/>
	<path class="st194" d="M-215.4-181.5c0,0,323.9,121.5,796.4-6.3c256.2-69.3,676.9-93.9,825.6,40.2"/>
	<path class="st195" d="M-215.1-194.9c0,0,324.7,124.6,796.4-5.8c255.5-70.6,678.6-96.5,825.5,40.7"/>
	<path class="st196" d="M-214.9-208.4c0,0,325.4,127.6,796.5-5.3c254.9-71.9,680.3-99.1,825.4,41.2"/>
	<path class="st197" d="M-214.7-221.9c0,0,326.2,130.7,796.6-4.8c254.2-73.3,681.9-101.6,825.4,41.7"/>
	<path class="st198" d="M-214.5-235.3c0,0,327.2,134.7,796.6-4.3c253.7-74.1,683.6-104.2,825.3,42.2"/>
	<path class="st199" d="M-214.3-248.8c0,0,328,137.7,796.7-3.8c253-75.5,685.3-106.8,825.3,42.7"/>
	<path class="st200" d="M-214.1-262.2c0,0,328.7,140.7,796.8-3.4c252.3-76.9,687-109.3,825.2,43.2"/>
	<path class="st201" d="M-213.9-275.7c0,0,329.4,143.6,796.8-2.9c251.7-78.3,688.6-111.9,825.2,43.7"/>
	<path class="st202" d="M-213.7-289.2c0,0,330.2,146.6,796.9-2.4c251-79.7,690.3-114.5,825.1,44.3"/>
	<path class="st203" d="M-213.5-302.6c0,0,330.9,149.6,797-1.9c250.3-81,692-117.1,825.1,44.8"/>
	<path class="st204" d="M-213.3-316.1c0,0,331.7,152.6,797-1.4c249.6-82.4,693.7-119.6,825,45.3"/>
	<path class="st205" d="M-213.1-329.5c0,0,332.4,155.6,797.1-0.9c249-83.8,695.4-122.2,825,45.8"/>
</g>
<image style="overflow:visible;opacity:0.11;" width="1920" height="1200" xlink:href="DBC93FEE.jpg"  transform="matrix(0.5349 0 0 0.4288 0 0)">
</image>
<image style="overflow:visible;opacity:0.11;" width="1920" height="1200" xlink:href="DBC93FEC.jpg"  transform="matrix(-0.4288 0 0 -0.4288 1969.8843 514.5712)">
</image>
<image style="overflow:visible;opacity:0.36;" width="1920" height="1280" xlink:href="DBC93FE6.jpg"  transform="matrix(0.5555 0 0 0.5555 -8 -77)">
</image>
<g>
	<path class="st206" d="M576,295.2c-42.7,0-84.8,0-128,0c0.8-5.4,1.1-10.8,2.3-16c4.8-20.4,16.2-35.9,34.8-45.9
		c2.4-1.3,4.1-1.4,6.6,0.4c12.3,9.3,28.2,9.2,40.5,0c2.4-1.8,4.1-1.8,6.6-0.5c21.8,11.7,33.6,30.1,36.6,54.4
		C575.6,289.9,575.8,292.2,576,295.2z"/>
	<path class="st206" d="M543.8,204.7c0,17.6-14.3,31.7-32,31.6c-17.6,0-31.9-14.3-31.8-31.8c0.1-17.2,14.3-31.2,31.8-31.3
		C529.4,173.1,543.8,187.3,543.8,204.7z"/>
</g>
<circle class="st207" cx="512" cy="250" r="104.5"/>
</svg>
