<?xml version="1.0" encoding="utf-8"?>
<!-- Generator: Adobe Illustrator 23.1.0, SVG Export Plug-In . SVG Version: 6.00 Build 0)  -->
<svg version="1.1" id="Layer_1" xmlns="http://www.w3.org/2000/svg" xmlns:xlink="http://www.w3.org/1999/xlink" x="0px" y="0px"
	 viewBox="0 0 10 10" style="enable-background:new 0 0 10 10;" xml:space="preserve">
<style type="text/css">
	.st0{fill:#515161;}
</style>
<g>
	<path class="st0" d="M9.2,0.1c-1.4,0-6.9,0-8.3,0c-0.1,0-0.2,0.1-0.2,0.2c0,0.2,0.7,7.1,0.8,8.4c0,0.2,0.1,0.2,0.2,0.3
		c1.1,0.3,2.1,0.6,3.2,0.9c0.1,0,0.2,0,0.3,0c1.1-0.3,2-0.6,3.1-0.9c0.2-0.1,0.3-0.2,0.3-0.4c0-0.7,0.7-7.3,0.8-8.3
		C9.4,0.1,9.3,0.1,9.2,0.1z M7.6,2.8C7.6,2.9,7.6,2.9,7.6,2.8c-1,0.1-3.5,0.1-4,0.1C3.5,3,3.5,3,3.5,3c0,0.3,0.1,0.6,0.1,0.9
		C3.6,4,3.6,4,3.7,4c0.5,0,2.9,0,3.7,0c0.1,0,0.1,0.1,0.1,0.1C7.4,5,7.4,5.8,7.3,6.5c0,0.3,0,0.5-0.1,0.8c0,0.1,0,0.1-0.1,0.2
		C6.5,7.6,5,8,5,8C4.3,7.8,3.6,7.6,3,7.4c-0.1,0-0.2-0.1-0.2-0.2c0-0.5-0.1-0.9-0.1-1.4c0-0.1,0-0.2,0.2-0.2c0.3,0,0.5,0,0.8,0
		c0.1,0,0.2,0,0.2,0.2c0,0.1,0,0.3,0,0.4c0,0.2,0.1,0.3,0.3,0.4C4.4,6.7,5,6.9,5,6.9c0.4-0.1,0.7-0.2,1.1-0.3c0.1,0,0.2-0.1,0.2-0.2
		c0-0.4,0.1-0.7,0.1-1.1c0-0.1,0-0.2-0.2-0.2c-0.4,0-2,0-2.5,0c-0.3,0-0.6,0-0.9,0c-0.1,0-0.2,0-0.2-0.2c0-1-0.1-2-0.2-2.9
		c0-0.1,0-0.2,0.2-0.2c0.8,0,4.3,0,5.2,0c0.1,0,0.1,0,0.1,0.1C7.7,2.4,7.7,2.5,7.6,2.8z"/>
</g>
</svg>
