<?xml version="1.0" encoding="utf-8"?>
<!-- Generator: Adobe Illustrator 23.1.0, SVG Export Plug-In . SVG Version: 6.00 Build 0)  -->
<svg version="1.1" id="Layer_1" xmlns="http://www.w3.org/2000/svg" xmlns:xlink="http://www.w3.org/1999/xlink" x="0px" y="0px"
	 viewBox="0 0 10 10" style="enable-background:new 0 0 10 10;" xml:space="preserve">
<style type="text/css">
	.st0{fill:#FFFFFF;}
</style>
<g>
	<path class="st0" d="M9.3,0C7.9,0,6.5,0,5,0C3.7,0,2.2,0,0.8,0C0.7,0,0.6,0.1,0.6,0.2c0,0.2,0,0.5,0.1,0.7C0.8,2.2,0.9,3.5,1,4.7
		c0.1,1.4,0.3,2.8,0.4,4.1C1.4,9,1.5,9,1.6,9.1C2.7,9.4,3.8,9.7,4.9,10c0.1,0,0.2,0,0.3,0c1.1-0.3,2.1-0.6,3.2-0.9
		C8.6,9,8.7,8.9,8.7,8.7c0-0.7,0.1-1.4,0.2-2.1C9,5.5,9.1,4.4,9.2,3.2c0.1-1,0.2-2,0.3-3C9.5,0,9.4,0,9.3,0z M7.7,2.8
		c0,0.1,0,0.1-0.1,0.1c-0.9,0-3.5,0-4,0C3.5,3,3.5,3,3.5,3c0,0.3,0.1,0.6,0.1,0.9c0,0.1,0,0.1,0.1,0.1c0.5,0,3,0,3.8,0
		c0.1,0,0.1,0.1,0.1,0.1C7.5,5,7.5,5.8,7.4,6.5c0,0.3,0,0.5-0.1,0.8c0,0.1,0,0.1-0.1,0.2C6.5,7.7,5,8.1,5,8.1
		C4.3,7.9,3.6,7.7,2.9,7.5c-0.1,0-0.2-0.1-0.2-0.2c0-0.5-0.1-0.9-0.1-1.4c0-0.1,0-0.2,0.2-0.2c0.3,0,0.5,0,0.8,0
		c0.1,0,0.2,0,0.2,0.2c0,0.1,0,0.3,0,0.4c0,0.2,0.1,0.3,0.3,0.4C4.4,6.8,5,7,5,7c0.4-0.1,0.7-0.2,1.1-0.3c0.1,0,0.2-0.1,0.2-0.2
		c0-0.4,0.1-0.7,0.1-1.1c0-0.1,0-0.2-0.2-0.2c-0.4,0-2.1,0-2.6,0c-0.3,0-0.6,0-0.9,0c-0.1,0-0.2,0-0.2-0.2C2.5,4,2.4,3,2.3,2
		c0-0.1,0-0.2,0.2-0.2c0.8,0,4.4,0,5.3,0c0.1,0,0.1,0,0.1,0.1C7.8,2.3,7.8,2.5,7.7,2.8z"/>
</g>
</svg>
