<?xml version="1.0" encoding="utf-8"?>
<!-- Generator: Adobe Illustrator 23.1.0, SVG Export Plug-In . SVG Version: 6.00 Build 0)  -->
<svg version="1.1" id="Layer_1" xmlns="http://www.w3.org/2000/svg" xmlns:xlink="http://www.w3.org/1999/xlink" x="0px" y="0px"
	 viewBox="0 0 10 10" style="enable-background:new 0 0 10 10;" xml:space="preserve">
<style type="text/css">
	.st0{fill:#FFFFFF;}
</style>
<g>
	<g>
		<g>
			<path class="st0" d="M6.7,0.9h2.7L5.8,7.4c0,0-0.6-1.8-0.8-2.3"/>
		</g>
	</g>
	<g>
		<g>
			<path class="st0" d="M6.8,1h2.7L5.9,7.5c0,0-0.6-1.8-0.8-2.3"/>
		</g>
	</g>
	<g>
		<g>
			<path class="st0" d="M7.4,9.1h2.1V1C9.5,5.2,7.6,9.1,7.4,9.1"/>
		</g>
	</g>
	<g>
		<g>
			<path class="st0" d="M7.4,9.1h2.1V1C9.5,5.2,7.6,9.1,7.4,9.1z"/>
		</g>
	</g>
	<g>
		<g>
			<path class="st0" d="M5.8,7.5H4.3L0.6,1c0.6-0.1,1.9-0.2,2.5-0.3L5.8,7.5z"/>
		</g>
	</g>
	<g>
		<g>
			<path class="st0" d="M5.8,7.5H4.3L0.6,1c0.6-0.1,1.9-0.2,2.5-0.3L5.8,7.5z"/>
		</g>
	</g>
	<g>
		<g>
			<path class="st0" d="M2.8,5C2.2,7.2,0.6,9.2,0.6,9.2c1.9,0,2.2-0.3,2.2-0.4V5.2C2.9,5.1,2.8,5.1,2.8,5"/>
		</g>
	</g>
	<g>
		<g>
			<path class="st0" d="M2.7,4.9C2.1,7.1,0.5,9.1,0.5,9.1c1.9,0,2.2-0.3,2.2-0.4V5.1C2.8,5,2.7,5,2.7,4.9z"/>
		</g>
	</g>
	<g>
		<g>
			<path class="st0" d="M0.5,1v8.2c1-1.7,1.6-2.7,2.1-4.3C1.4,2.7,0.5,1,0.5,1"/>
		</g>
	</g>
	<g>
		<g>
			<path class="st0" d="M0.5,1v8.2c1-1.7,1.6-2.7,2.1-4.3C1.4,2.7,0.5,1,0.5,1z"/>
		</g>
	</g>
</g>
<polygon class="st0" points="7.3,5 7.3,8.7 7.4,9.1 7.4,4.8 "/>
<g>
	<g>
		<g>
			<path class="st0" d="M7.4,4.8V9l0,0c0.2,0,2.1-4.6,2.1-8.1C9.5,1,8.3,3.3,7.4,4.8"/>
		</g>
	</g>
</g>
</svg>
