<?xml version="1.0" encoding="utf-8"?>
<!-- Generator: Adobe Illustrator 23.1.0, SVG Export Plug-In . SVG Version: 6.00 Build 0)  -->
<svg version="1.1" id="Layer_1" xmlns="http://www.w3.org/2000/svg" xmlns:xlink="http://www.w3.org/1999/xlink" x="0px" y="0px"
	 viewBox="0 0 10 10" style="enable-background:new 0 0 10 10;" xml:space="preserve">
<style type="text/css">
	.st0{fill:#FFFFFF;}
</style>
<g>
	<g>
		<g>
			<g>
				<path class="st0" d="M7,1.7v0.3H3V1.7c0-0.2,0.2-0.6,0.6-0.6h2.8C6.7,1.2,7,1.4,7,1.7z"/>
				<path class="st0" d="M9.4,2.8H0.6C0.2,2.8,0,3,0,3.2v5.1c0,0.3,0.2,0.6,0.6,0.6h8.9c0.3,0,0.6-0.3,0.6-0.6h0V3.3
					C10,3,9.8,2.8,9.4,2.8z M1.2,4.4C1,4.4,0.8,4.3,0.8,4c0-0.3,0.3-0.4,0.6-0.4S1.8,3.8,1.8,4C1.8,4.2,1.6,4.4,1.2,4.4z M4.9,8.1
					c-1.3,0-2.5-1-2.5-2.4s1.1-2.4,2.5-2.4s2.5,1,2.5,2.4C7.4,7,6.3,8.1,4.9,8.1z"/>
				<ellipse class="st0" cx="4.9" cy="5.8" rx="1.8" ry="1.7"/>
			</g>
		</g>
	</g>
</g>
</svg>
