<?xml version="1.0" encoding="utf-8"?>
<!-- Generator: Adobe Illustrator 23.1.0, SVG Export Plug-In . SVG Version: 6.00 Build 0)  -->
<svg version="1.1" id="Layer_1" xmlns="http://www.w3.org/2000/svg" xmlns:xlink="http://www.w3.org/1999/xlink" x="0px" y="0px"
	 viewBox="0 0 10 10" style="enable-background:new 0 0 10 10;" xml:space="preserve">
<style type="text/css">
	.st0{fill:none;}
	.st1{fill:#515161;}
</style>
<g>
	<path class="st0" d="M3.6,7.7C5.1,6.8,6.5,6,8,5.1C6.5,4.2,5.1,3.3,3.6,2.4C3.6,4.2,3.6,5.9,3.6,7.7z M3.7,2.7
		C5,3.5,6.3,4.2,7.6,5.1C6.3,5.9,5.1,6.6,3.7,7.5C3.7,5.8,3.7,4.3,3.7,2.7z"/>
	<path class="st1" d="M4.8,0.1C2,0.2,0,2.5,0,5c0,2.8,2.3,4.9,4.9,5c2.9,0,5.2-2.4,5.1-5C10.1,2.7,8.1-0.1,4.8,0.1z M3.6,7.7
		c0-1.8,0-3.5,0-5.4c1.5,1,2.9,1.9,4.4,2.8C6.5,6,5.1,6.8,3.6,7.7z"/>
</g>
</svg>
