<?xml version="1.0" encoding="utf-8"?>
<!-- Generator: Adobe Illustrator 23.1.0, SVG Export Plug-In . SVG Version: 6.00 Build 0)  -->
<svg version="1.1" id="Layer_1" xmlns="http://www.w3.org/2000/svg" xmlns:xlink="http://www.w3.org/1999/xlink" x="0px" y="0px"
	 viewBox="0 0 102 96.5" style="enable-background:new 0 0 102 96.5;" xml:space="preserve">
<style type="text/css">
	.st0{fill:none;stroke:#AE9C79;stroke-width:4;stroke-linejoin:round;}
	.st1{fill:#AE9C79;stroke:#AE9C79;stroke-width:3;}
	.st2{fill:#AE9C79;}
</style>
<g>
	<line class="st0" x1="30.5" y1="67.6" x2="69.1" y2="29.1"/>
	<g>
		<path class="st1" d="M25.7,43.5v-21h5.5c3.6,0,6.3,0.9,8.1,2.6s2.8,4.3,2.8,7.6c0,1.6-0.3,3.1-0.8,4.4s-1.3,2.5-2.2,3.4
			s-2.1,1.7-3.5,2.2s-2.9,0.8-4.7,0.8C30.9,43.5,25.7,43.5,25.7,43.5z M27.7,24.3v17.5h3.2c1.4,0,2.7-0.2,3.9-0.6s2.1-1,2.9-1.7
			c0.8-0.8,1.4-1.7,1.8-2.8s0.6-2.4,0.6-3.8c0-5.7-3-8.5-9-8.5C31.1,24.3,27.7,24.3,27.7,24.3z"/>
	</g>
	<g>
		<path class="st1" d="M69.2,72.2c-1.6,0.8-3.5,1.1-5.5,1.1c-1.5,0-2.8-0.3-4-0.8s-2.2-1.3-3.1-2.2s-1.5-2-2-3.3s-0.7-2.7-0.7-4.2
			c0-1.6,0.3-3.1,0.7-4.5c0.5-1.4,1.2-2.6,2.1-3.6s2-1.8,3.3-2.4s2.8-0.9,4.4-0.9c1.8,0,3.4,0.3,4.8,0.8v2.1
			c-1.5-0.8-3.1-1.1-4.8-1.1c-1.4,0-2.6,0.2-3.6,0.7s-1.9,1.1-2.7,2c-0.7,0.8-1.3,1.8-1.7,3s-0.6,2.4-0.6,3.7c0,1.2,0.2,2.3,0.5,3.4
			s0.8,2,1.5,2.8s1.5,1.4,2.5,1.9s2.2,0.7,3.5,0.7c2,0,3.8-0.4,5.3-1.3L69.2,72.2L69.2,72.2z"/>
	</g>
	<g>
		<g>
			<path class="st2" d="M48.3,4.4c24.2,0,43.8,19.6,43.8,43.8S72.5,92,48.3,92S4.5,72.4,4.5,48.2S24.1,4.4,48.3,4.4 M48.3,0.4
				C21.9,0.4,0.5,21.8,0.5,48.2S21.9,96,48.3,96s47.8-21.4,47.8-47.8S74.7,0.4,48.3,0.4L48.3,0.4z"/>
		</g>
	</g>
</g>
</svg>
