<?xml version="1.0" encoding="utf-8"?>
<!-- Generator: Adobe Illustrator 23.1.0, SVG Export Plug-In . SVG Version: 6.00 Build 0)  -->
<svg version="1.1" id="Layer_1" xmlns="http://www.w3.org/2000/svg" xmlns:xlink="http://www.w3.org/1999/xlink" x="0px" y="0px"
	 viewBox="0 0 95.6 95.6" style="enable-background:new 0 0 95.6 95.6;" xml:space="preserve">
<style type="text/css">
	.st0{fill:none;stroke:#21233F;stroke-width:4;stroke-linejoin:round;}
	.st1{fill:#AE9C79;stroke:#21233F;stroke-width:3;}
	.st2{fill:#21233F;}
</style>
<g>
	<line class="st0" x1="30" y1="67.2" x2="68.6" y2="28.7"/>
	<g>
		<path class="st1" d="M25.2,43.1v-21h5.5c3.6,0,6.3,0.9,8.1,2.6s2.8,4.3,2.8,7.6c0,1.6-0.3,3.1-0.8,4.4s-1.3,2.5-2.2,3.4
			s-2.1,1.7-3.5,2.2s-2.9,0.8-4.7,0.8C30.4,43.1,25.2,43.1,25.2,43.1z M27.2,23.9v17.5h3.2c1.4,0,2.7-0.2,3.9-0.6s2.1-1,2.9-1.7
			c0.8-0.8,1.4-1.7,1.8-2.8s0.6-2.4,0.6-3.8c0-5.7-3-8.5-9-8.5C30.6,23.9,27.2,23.9,27.2,23.9z"/>
	</g>
	<g>
		<path class="st1" d="M68.7,71.8c-1.6,0.8-3.5,1.1-5.5,1.1c-1.5,0-2.8-0.3-4-0.8s-2.2-1.3-3.1-2.2s-1.5-2-2-3.3s-0.7-2.7-0.7-4.2
			c0-1.6,0.3-3.1,0.7-4.5c0.5-1.4,1.2-2.6,2.1-3.6s2-1.8,3.3-2.4s2.8-0.9,4.4-0.9c1.8,0,3.4,0.3,4.8,0.8v2.1
			c-1.5-0.8-3.1-1.1-4.8-1.1c-1.4,0-2.6,0.2-3.6,0.7s-1.9,1.1-2.7,2c-0.7,0.8-1.3,1.8-1.7,3s-0.6,2.4-0.6,3.7c0,1.2,0.2,2.3,0.5,3.4
			s0.8,2,1.5,2.8s1.5,1.4,2.5,1.9S62,71,63.3,71c2,0,3.8-0.4,5.3-1.3L68.7,71.8L68.7,71.8z"/>
	</g>
	<g>
		<g>
			<path class="st2" d="M47.8,4C72,4,91.6,23.6,91.6,47.8S72,91.6,47.8,91.6S4,72,4,47.8S23.6,4,47.8,4 M47.8,0
				C21.4,0,0,21.4,0,47.8s21.4,47.8,47.8,47.8s47.8-21.4,47.8-47.8S74.2,0,47.8,0L47.8,0z"/>
		</g>
	</g>
</g>
</svg>
